<svg width="18" height="18" viewBox="0 0 18 18" fill="none" xmlns="http://www.w3.org/2000/svg">
<path d="M17.7825 7.7175L14.7825 4.7175C14.64 4.575 14.445 4.5 14.25 4.5H9C8.175 4.5 7.5 5.175 7.5 6V16.5C7.5 17.325 8.175 18 9 18H16.5C17.325 18 18 17.325 18 16.5V8.25C18 8.055 17.925 7.86 17.7825 7.7175ZM14.25 6.315L16.185 8.25H14.625C14.415 8.25 14.25 8.085 14.25 7.875V6.315ZM16.5 16.125C16.5 16.335 16.335 16.5 16.125 16.5H9.375C9.165 16.5 9 16.335 9 16.125V6.375C9 6.165 9.165 6 9.375 6H12.375C12.585 6 12.75 6.165 12.75 6.375V7.5H11.25C10.8375 7.5 10.5 7.8375 10.5 8.25C10.5 8.6625 10.8375 9 11.25 9H12.9525C13.215 9.45 13.695 9.75 14.25 9.75H16.125C16.335 9.75 16.5 9.915 16.5 10.125V16.125Z" fill="#757575"/>
<path d="M9.75 1.5V2.25C9.75 2.6625 9.4125 3 9 3C8.5875 3 8.25 2.6625 8.25 2.25V1.875C8.25 1.665 8.085 1.5 7.875 1.5H7.4925H1.875C1.665 1.5 1.5 1.665 1.5 1.875V11.625C1.5 11.835 1.665 12 1.875 12H5.265C5.67 12.0075 6 12.345 6 12.75C6 13.155 5.67 13.4925 5.265 13.5H1.5075C0.675 13.5 0 12.825 0 12V1.5C0 0.675 0.675 0 1.5075 0H8.2425C9.075 0 9.75 0.675 9.75 1.5ZM14.25 15H11.25C10.8352 15 10.5 14.6648 10.5 14.25C10.5 13.8352 10.8352 13.5 11.25 13.5H14.25C14.6647 13.5 15 13.8352 15 14.25C15 14.6648 14.6647 15 14.25 15ZM14.25 12H11.25C10.8352 12 10.5 11.6648 10.5 11.25C10.5 10.8352 10.8352 10.5 11.25 10.5H14.25C14.6647 10.5 15 10.8352 15 11.25C15 11.6648 14.6647 12 14.25 12Z" fill="#757575"/>
<path d="M5.25 4.5H3.75C3.33525 4.5 3 4.16475 3 3.75C3 3.33525 3.33525 3 3.75 3H5.25C5.66475 3 6 3.33525 6 3.75C6 4.16475 5.66475 4.5 5.25 4.5ZM5.25 10.5H3.75C3.33525 10.5 3 10.1647 3 9.75C3 9.33525 3.33525 9 3.75 9H5.25C5.66475 9 6 9.33525 6 9.75C6 10.1647 5.66475 10.5 5.25 10.5ZM5.25 7.5H3.75C3.33525 7.5 3 7.16475 3 6.75C3 6.33525 3.33525 6 3.75 6H5.25C5.66475 6 6 6.33525 6 6.75C6 7.16475 5.66475 7.5 5.25 7.5Z" fill="#757575"/>
</svg>
