<svg width="40" height="40" viewBox="0 0 40 40" fill="none" xmlns="http://www.w3.org/2000/svg">
<path d="M20.0001 1.53857C9.76934 1.53857 1.53857 9.76934 1.53857 20.0001C1.53857 30.2309 9.76934 38.4617 20.0001 38.4617C30.2309 38.4617 38.4617 30.2309 38.4617 20.0001C38.4617 9.76934 30.2309 1.53857 20.0001 1.53857ZM20.0001 33.8463C12.3078 33.8463 6.15396 27.6924 6.15396 20.0001C6.15396 12.3078 12.3078 6.15396 20.0001 6.15396C27.6924 6.15396 33.8463 12.3078 33.8463 20.0001C33.8463 27.6924 27.6924 33.8463 20.0001 33.8463Z" fill="white"/>
<path d="M20.0001 10.8462C21.3078 10.8462 22.3078 11.8462 22.3078 13.1539C22.3078 14.4616 21.3078 15.4616 20.0001 15.4616C18.6924 15.4616 17.6924 14.4616 17.6924 13.1539C17.6924 11.8462 18.6924 10.8462 20.0001 10.8462Z" fill="white"/>
<path d="M23.8461 27C23.8461 27.3846 23.5384 27.6923 23.0769 27.6923H16.923C16.5384 27.6923 16.1538 27.4616 16.1538 27V25.4616C16.1538 25.0769 16.4615 24.6154 16.923 24.6154C17.3077 24.6154 17.6923 24.3846 17.6923 23.9231V20.8462C17.6923 20.4616 17.3846 20 16.923 20C16.5384 20 16.1538 19.7692 16.1538 19.3077V17.7692C16.1538 17.3846 16.4615 16.9231 16.923 16.9231H21.5384C21.923 16.9231 22.3077 17.3077 22.3077 17.7692V23.9231C22.3077 24.3077 22.6153 24.6154 23.0769 24.6154C23.4615 24.6154 23.8461 25 23.8461 25.4616V27Z" fill="white"/>
</svg>
