<svg width="50" height="50" viewBox="0 0 50 50" fill="none" xmlns="http://www.w3.org/2000/svg">
<path d="M35.1148 18.0526C36.3495 19.2876 38.3513 19.2871 39.5858 18.0526C40.8208 16.8181 40.821 14.8161 39.5858 13.5813L26.931 0.925818C25.696 -0.309182 23.6943 -0.308682 22.4593 0.925818C21.2245 2.16032 21.2245 4.16232 22.4593 5.39707L35.1148 18.0526Z" fill="white"/>
<path d="M5.39726 22.4602C4.16276 21.2252 2.16075 21.2252 0.92625 22.4602C-0.3085 23.6947 -0.309 25.6964 0.92625 26.9314L13.581 39.5862C14.816 40.8212 16.8175 40.8212 18.0528 39.5862C19.2878 38.3517 19.2878 36.3497 18.0528 35.1147L5.39726 22.4602Z" fill="white"/>
<path d="M48.4015 41.9823L29.6365 25.9841C30.4835 25.0086 31.286 23.9931 32.0273 22.9301L32.4145 22.3751C33.215 21.2271 33.0773 19.6701 32.0875 18.6803L21.8323 8.42508C20.8425 7.43533 19.2855 7.29783 18.1375 8.09833L17.233 8.72909C13.9195 11.0401 11.0408 13.9188 8.72954 17.2321L8.09854 18.1368C7.29779 19.2851 7.43528 20.8423 8.42503 21.8318L18.6808 32.0871C19.6705 33.0768 21.2273 33.2146 22.3753 32.4138L22.9303 32.0266C23.9928 31.2856 25.0083 30.4836 25.9835 29.6371L41.982 48.4016C42.8063 49.3683 43.997 49.9468 45.266 49.9966C46.5358 50.0471 47.7685 49.5653 48.6668 48.6673C49.5655 47.7691 50.0473 46.5366 49.9968 45.2668C49.9465 43.9971 49.368 42.8068 48.4015 41.9823Z" fill="white"/>
</svg>
