<svg width="16" height="16" viewBox="0 0 16 16" fill="none" xmlns="http://www.w3.org/2000/svg">
<path d="M16 4.1917C16.0006 4.08642 15.9804 3.98206 15.9406 3.8846C15.9008 3.78714 15.8421 3.69849 15.768 3.62374L12.376 0.231996C12.3012 0.157856 12.2126 0.0992007 12.1151 0.0593919C12.0176 0.0195832 11.9133 -0.000595299 11.808 1.33704e-05C11.7027 -0.000595299 11.5983 0.0195832 11.5009 0.0593919C11.4034 0.0992007 11.3147 0.157856 11.24 0.231996L8.976 2.49583L0.232013 11.2392C0.157868 11.3139 0.0992079 11.4026 0.0593963 11.5C0.0195847 11.5975 -0.000595342 11.7019 1.33714e-05 11.8071V15.1989C1.33714e-05 15.411 0.0842987 15.6145 0.234328 15.7645C0.384356 15.9145 0.587839 15.9988 0.800012 15.9988H4.19201C4.30395 16.0049 4.41592 15.9874 4.52066 15.9474C4.6254 15.9075 4.72057 15.8459 4.8 15.7668L13.496 7.02349L15.768 4.79965C15.841 4.72213 15.9005 4.63289 15.944 4.53568C15.9517 4.47191 15.9517 4.40745 15.944 4.34369C15.9477 4.30645 15.9477 4.26893 15.944 4.2317L16 4.1917ZM3.86401 14.3989H1.60001V12.1351L9.544 4.1917L11.808 6.45553L3.86401 14.3989ZM12.936 5.32762L10.672 3.06378L11.808 1.93587L14.064 4.1917L12.936 5.32762Z" fill="white"/>
</svg>
