<svg width="14" height="14" viewBox="0 0 14 14" fill="none" xmlns="http://www.w3.org/2000/svg">
<path d="M12 6C12 2.68629 9.3137 0 6 0C2.68629 0 0 2.68629 0 6C0 9.3137 2.68629 12 6 12C6.08516 12 6.1699 11.9982 6.25419 11.9947C6.14265 11.6779 6.06557 11.3448 6.02746 10.9999L6 11C3.23858 11 1 8.76142 1 6C1 3.23858 3.23858 1 6 1C8.76142 1 11 3.23858 11 6L10.9999 6.02746C11.3448 6.06557 11.6779 6.14265 11.9947 6.25419C11.9982 6.1699 12 6.08516 12 6Z" fill="white"/>
<path d="M6.1117 9.49821C6.19537 9.13021 6.32416 8.77927 6.49195 8.45163C6.33284 8.48337 6.16827 8.50001 5.99979 8.50001C5.25942 8.50001 4.59473 8.17881 4.13625 7.66655C3.95208 7.46079 3.63599 7.44328 3.43022 7.62744C3.22446 7.81161 3.20695 8.12769 3.39111 8.33346C4.03127 9.0487 4.96316 9.50001 5.99979 9.50001C6.03723 9.50001 6.07454 9.49941 6.1117 9.49821Z" fill="white"/>
<path d="M5 5C5 5.41421 4.66421 5.75 4.25 5.75C3.83579 5.75 3.5 5.41421 3.5 5C3.5 4.58579 3.83579 4.25 4.25 4.25C4.66421 4.25 5 4.58579 5 5Z" fill="white"/>
<path d="M7.75 5.75C8.16421 5.75 8.5 5.41421 8.5 5C8.5 4.58579 8.16421 4.25 7.75 4.25C7.33579 4.25 7 4.58579 7 5C7 5.41421 7.33579 5.75 7.75 5.75Z" fill="white"/>
<path d="M14 10.5C14 12.433 12.433 14 10.5 14C8.567 14 7 12.433 7 10.5C7 8.567 8.567 7 10.5 7C12.433 7 14 8.567 14 10.5ZM11 8.5C11 8.22386 10.7761 8 10.5 8C10.2239 8 10 8.22386 10 8.5V10H8.5C8.22386 10 8 10.2239 8 10.5C8 10.7761 8.22386 11 8.5 11H10V12.5C10 12.7761 10.2239 13 10.5 13C10.7761 13 11 12.7761 11 12.5V11H12.5C12.7761 11 13 10.7761 13 10.5C13 10.2239 12.7761 10 12.5 10H11V8.5Z" fill="white"/>
</svg>
