<svg width="12" height="12" viewBox="0 0 12 12" fill="none" xmlns="http://www.w3.org/2000/svg">
<path d="M8.4889 3.83268L7.61895 3.07217L3.26918 6.87776C2.54836 7.50852 2.54836 8.53079 3.26918 9.16081C3.99 9.79082 5.15822 9.79157 5.87904 9.16081L11.0988 4.59395C12.3004 3.54318 12.3004 1.83914 11.0988 0.788362C9.89711 -0.262412 7.94979 -0.263162 6.74899 0.788362L1.26872 5.58322C1.26443 5.58697 1.26015 5.58997 1.25672 5.59297C-0.418906 7.05926 -0.418906 9.43532 1.25672 10.9008C2.93234 12.3664 5.64763 12.3664 7.32325 10.9008C7.32668 10.8978 7.33011 10.8941 7.33439 10.8903L7.33525 10.8911L11.0765 7.61802L10.2065 6.8575L6.4653 10.1298C6.46101 10.1328 6.45758 10.1366 6.45415 10.1396C5.26108 11.1836 3.32061 11.1836 2.12753 10.1396C0.93445 9.09556 0.93445 7.39827 2.12753 6.35424C2.13181 6.35049 2.13524 6.34749 2.13953 6.34449L2.13867 6.34374L7.61981 1.54888C8.33891 0.918865 9.5097 0.918865 10.2297 1.54888C10.9496 2.17889 10.9488 3.20267 10.2297 3.83193L5.00995 8.39879C4.76996 8.6088 4.37998 8.6088 4.13999 8.39879C3.90001 8.18879 3.90001 7.84753 4.13999 7.63827L8.48976 3.83193L8.4889 3.83268Z" fill="white"/>
</svg>
