<svg width="50" height="50" viewBox="0 0 50 50" fill="none" xmlns="http://www.w3.org/2000/svg">
<path fill-rule="evenodd" clip-rule="evenodd" d="M33.3337 18.75C33.3337 23.3523 29.6026 27.0833 25.0003 27.0833C20.398 27.0833 16.667 23.3523 16.667 18.75C16.667 14.1476 20.398 10.4166 25.0003 10.4166C29.6026 10.4166 33.3337 14.1476 33.3337 18.75ZM29.167 18.75C29.167 21.0512 27.3016 22.9166 25.0003 22.9166C22.6991 22.9166 20.8337 21.0512 20.8337 18.75C20.8337 16.4488 22.6991 14.5833 25.0003 14.5833C27.3016 14.5833 29.167 16.4488 29.167 18.75Z" fill="white"/>
<path fill-rule="evenodd" clip-rule="evenodd" d="M24.9997 2.08337C12.3432 2.08337 2.08301 12.3435 2.08301 25C2.08301 37.6565 12.3432 47.9167 24.9997 47.9167C37.6561 47.9167 47.9163 37.6565 47.9163 25C47.9163 12.3435 37.6561 2.08337 24.9997 2.08337ZM6.24967 25C6.24967 29.3546 7.73415 33.3625 10.2246 36.5452C13.6506 32.0602 19.0544 29.1667 25.134 29.1667C31.1347 29.1667 36.4772 31.9857 39.909 36.3715C42.3184 33.2173 43.7497 29.2759 43.7497 25C43.7497 14.6447 35.3551 6.25004 24.9997 6.25004C14.6443 6.25004 6.24967 14.6447 6.24967 25ZM24.9997 43.75C20.52 43.75 16.4073 42.179 13.1823 39.558C15.8195 35.7942 20.1894 33.3334 25.134 33.3334C30.0172 33.3334 34.3399 35.7336 36.9868 39.4186C33.737 42.1232 29.5582 43.75 24.9997 43.75Z" fill="white"/>
</svg>
