<svg width="50" height="50" viewBox="0 0 50 50" fill="none" xmlns="http://www.w3.org/2000/svg">
<g clip-path="url(#clip0_1252_81)">
<path d="M44.6429 21.875H41.9643V14.8438C41.9643 6.66016 34.3527 0 25 0C15.6473 0 8.03571 6.66016 8.03571 14.8438V21.875H5.35714C2.39955 21.875 0 23.9746 0 26.5625V45.3125C0 47.9004 2.39955 50 5.35714 50H44.6429C47.6004 50 50 47.9004 50 45.3125V26.5625C50 23.9746 47.6004 21.875 44.6429 21.875ZM33.0357 21.875H16.9643V14.8438C16.9643 10.9668 20.5692 7.8125 25 7.8125C29.4308 7.8125 33.0357 10.9668 33.0357 14.8438V21.875Z" fill="white"/>
</g>
<defs>
<clipPath id="clip0_1252_81">
<rect width="50" height="50" fill="white"/>
</clipPath>
</defs>
</svg>
