<svg width="50" height="50" viewBox="0 0 50 50" fill="none" xmlns="http://www.w3.org/2000/svg">
<g clip-path="url(#clip0_1252_77)">
<path d="M36.2031 13.0156C33.1502 10.157 29.1883 8.59004 24.9852 8.59375C17.4209 8.60039 10.8906 13.7869 9.0876 20.9814C8.95635 21.5052 8.48975 21.875 7.9498 21.875H2.35381C1.62158 21.875 1.06533 21.2103 1.20078 20.4906C3.31377 9.26992 13.1653 0.78125 25 0.78125C31.4891 0.78125 37.3819 3.33359 41.73 7.48877L45.2178 4.00098C46.6942 2.52451 49.2188 3.57021 49.2188 5.6583V18.75C49.2188 20.0444 48.1694 21.0938 46.875 21.0938H33.7833C31.6952 21.0938 30.6495 18.5692 32.126 17.0927L36.2031 13.0156ZM3.125 28.9062H16.2167C18.3048 28.9062 19.3505 31.4308 17.874 32.9073L13.7969 36.9845C16.8498 39.8432 20.812 41.4102 25.0152 41.4063C32.5756 41.3995 39.1085 36.2165 40.9124 29.0188C41.0437 28.495 41.5103 28.1252 42.0502 28.1252H47.6463C48.3785 28.1252 48.9348 28.7899 48.7993 29.5096C46.6862 40.7301 36.8347 49.2188 25 49.2188C18.5109 49.2188 12.6181 46.6664 8.27002 42.5112L4.78223 45.999C3.30576 47.4755 0.78125 46.4298 0.78125 44.3417V31.25C0.78125 29.9556 1.83057 28.9062 3.125 28.9062Z" fill="white"/>
</g>
<defs>
<clipPath id="clip0_1252_77">
<rect width="50" height="50" fill="white"/>
</clipPath>
</defs>
</svg>
